<svg xmlns="http://www.w3.org/2000/svg" xmlns:xlink="http://www.w3.org/1999/xlink" width="1080" zoomAndPan="magnify" viewBox="0 0 810 809.999993" height="1080" preserveAspectRatio="xMidYMid meet" version="1.0"><defs><clipPath id="84ee60dea4"><path d="M 129.785156 141.121094 L 673 141.121094 L 673 669 L 129.785156 669 Z M 129.785156 141.121094 " clip-rule="nonzero"/></clipPath></defs><g clip-path="url(#84ee60dea4)"><path fill="#af2a2a" d="M 384.832031 141.671875 C 368.4375 142.636719 338.078125 147.578125 331.425781 150.355469 C 324.796875 153.125 324.917969 164.960938 331.625 169.101562 C 334.933594 171.144531 339.28125 171.164062 348.992188 169.167969 C 362.023438 166.484375 373.546875 165.078125 390.996094 164.019531 C 407.410156 163.03125 407.988281 162.9375 410.746094 160.835938 C 416.164062 156.703125 416.589844 148.710938 411.652344 143.773438 L 408.996094 141.117188 L 399.117188 141.265625 C 393.679688 141.347656 387.257812 141.527344 384.835938 141.671875 M 453.039062 150.382812 C 449.265625 152.316406 447.230469 156.070312 447.230469 161.101562 C 447.230469 164.890625 447.527344 165.597656 450.234375 168.296875 C 452.363281 170.425781 454.617188 171.671875 458.03125 172.621094 C 474.660156 177.210938 489.667969 182.621094 503.429688 188.976562 C 513.355469 193.5625 517.699219 193.738281 522.082031 189.710938 C 526.773438 185.398438 527.242188 177.816406 523.09375 173.351562 C 517.222656 167.050781 473.375 150.277344 460.429688 149.382812 C 456.996094 149.144531 454.890625 149.429688 453.039062 150.382812 M 288.046875 165.773438 C 270.890625 173.679688 249.179688 186.867188 235.851562 197.472656 C 231.265625 201.125 231.25 201.144531 231.25 205.488281 C 231.25 209.425781 231.539062 210.144531 234.257812 213.003906 C 237.398438 216.308594 241.46875 217.730469 245.144531 216.808594 C 246.195312 216.546875 252.585938 212.601562 259.351562 208.046875 C 272.386719 199.265625 284.839844 192.0625 296.101562 186.785156 C 306.804688 181.769531 309.644531 178.78125 309.640625 172.554688 C 309.636719 167.277344 304.207031 161.082031 299.644531 161.140625 C 298.765625 161.15625 293.542969 163.238281 288.042969 165.773438 M 409.566406 201.03125 C 404.210938 202.769531 400.835938 207.113281 400.835938 212.269531 C 400.835938 217.746094 405.761719 223.121094 411.441406 223.847656 C 428.519531 226.042969 435.742188 227.308594 446.429688 229.988281 C 460.382812 233.484375 464.941406 233.816406 468.316406 231.589844 C 476.332031 226.308594 475.15625 215.085938 466.148438 210.851562 C 454.800781 205.519531 416.320312 198.839844 409.566406 201.03125 M 354.417969 203.078125 C 340.351562 205.949219 315.1875 214.808594 307.820312 219.480469 C 305.742188 220.800781 303.324219 223.054688 302.445312 224.496094 C 297.691406 232.289062 304.304688 242.714844 313.289062 241.585938 C 315.070312 241.367188 319.527344 239.898438 323.191406 238.328125 C 330.734375 235.101562 348.425781 229.203125 358.117188 226.683594 C 361.679688 225.757812 365.738281 224.308594 367.121094 223.460938 C 372.472656 220.210938 374.269531 213.761719 371.347656 208.300781 C 368.523438 203.023438 363.023438 201.324219 354.417969 203.082031 M 555.4375 207.855469 C 551.9375 209.4375 549.628906 213.4375 549.625 217.929688 C 549.621094 222.175781 550.53125 223.707031 557.210938 230.710938 C 559.945312 233.570312 564.996094 239.148438 568.445312 243.109375 C 576.066406 251.863281 578.21875 253.375 582.925781 253.304688 C 592.925781 253.15625 596.644531 243.054688 590.15625 233.679688 C 585.808594 227.402344 571.945312 212.222656 568.175781 209.617188 C 564.226562 206.882812 559.144531 206.179688 555.4375 207.855469 M 210.453125 221.9375 C 203.503906 223.488281 175.441406 258.980469 164.175781 280.460938 C 161.367188 285.808594 161.039062 286.953125 161.683594 289.199219 C 163.886719 296.875 173.511719 300.191406 179.628906 295.382812 C 180.804688 294.457031 185.289062 288.433594 189.589844 282.003906 C 198.371094 268.875 207.234375 257.234375 215.257812 248.289062 C 218.226562 244.976562 221.597656 240.878906 222.75 239.179688 C 228.746094 230.347656 221.054688 219.570312 210.453125 221.9375 M 491.195312 229.308594 C 485.242188 232.3125 483.058594 239.398438 486.394531 244.871094 C 487.253906 246.277344 492.203125 250.566406 497.390625 254.402344 C 502.578125 258.230469 511.6875 266.121094 517.625 271.929688 C 523.5625 277.742188 529.210938 282.902344 530.171875 283.398438 C 531.132812 283.898438 533.21875 284.304688 534.808594 284.304688 C 543.644531 284.304688 548.3125 275.160156 543.917969 266.472656 C 539.996094 258.722656 512.238281 234.148438 502.027344 229.390625 C 497.046875 227.066406 495.664062 227.058594 491.195312 229.308594 M 275.054688 239.835938 C 270.929688 241.320312 269.199219 242.546875 259.824219 250.605469 C 250.183594 258.886719 238.34375 271.222656 234.0625 277.433594 C 228.765625 285.128906 229.589844 292.25 236.242188 296.304688 C 237.695312 297.160156 239.257812 297.664062 240.9375 297.820312 C 242.613281 297.972656 244.246094 297.761719 245.828125 297.1875 C 246.863281 296.792969 249.851562 294.183594 252.464844 291.386719 C 262.261719 280.917969 273.472656 270.039062 280.320312 264.363281 C 288.394531 257.675781 290.441406 254.832031 290.441406 250.308594 C 290.441406 242.582031 282.480469 237.164062 275.054688 239.835938 M 396.734375 261.144531 C 392.0625 261.902344 390.351562 262.824219 387.636719 266.050781 C 385.730469 268.316406 385.507812 269.152344 385.816406 272.875 C 386.195312 277.457031 388.085938 280.242188 392.304688 282.4375 C 393.617188 283.117188 398.683594 283.929688 404.304688 284.351562 C 409.65625 284.757812 416.898438 285.671875 420.398438 286.378906 C 428.882812 288.105469 433.808594 287.601562 436.851562 284.683594 C 443.605469 278.21875 441.125 268.726562 431.773438 265.226562 C 424.230469 262.402344 403.707031 260.015625 396.734375 261.144531 M 354.84375 265.664062 C 349.492188 266.894531 335.234375 272.257812 328.132812 275.703125 C 315.367188 281.90625 310.664062 287.5 312.402344 294.425781 C 313.207031 297.632812 317.699219 301.6875 321.15625 302.339844 C 324.453125 302.957031 324.699219 302.875 339.1875 296.296875 C 344.21875 294.011719 352.0625 290.917969 356.617188 289.429688 C 367.167969 285.972656 369.347656 284.8125 371.273438 281.664062 C 374.367188 276.585938 372.789062 269.886719 367.761719 266.785156 C 365.136719 265.15625 359.234375 264.648438 354.839844 265.664062 M 602.019531 276.707031 C 600.257812 277.328125 598.023438 278.753906 597.054688 279.871094 C 593.863281 283.558594 593.933594 286.484375 597.5 298.097656 C 603.402344 317.292969 605.589844 327.214844 608.046875 345.851562 C 609.101562 353.859375 610.25 356.371094 613.890625 358.617188 C 619.363281 362 626.109375 359.75 629.160156 353.527344 C 630.601562 350.582031 630.636719 349.742188 629.742188 340.738281 C 627.996094 323.09375 620.6875 292.660156 615.996094 283.46875 C 614.371094 280.277344 610.167969 276.304688 608.421875 276.304688 C 607.828125 276.304688 606.871094 276.140625 606.285156 275.941406 C 605.695312 275.738281 603.777344 276.082031 602.019531 276.707031 M 458.382812 279.453125 C 452.59375 281.234375 449.132812 286.160156 449.859375 291.578125 C 450.375 295.421875 452.191406 297.804688 457.519531 301.625 C 465.394531 307.269531 467.582031 309.121094 474.628906 316.058594 C 492.644531 333.8125 502.574219 356.128906 504.445312 383.09375 C 505.066406 392.066406 506.144531 394.855469 509.867188 397.125 C 514.855469 400.171875 520.9375 398.167969 524.332031 392.359375 C 527.660156 386.65625 526.546875 367.601562 521.949219 351.6875 C 514.558594 326.125 498.828125 303.414062 477.226562 287.144531 C 468.238281 280.378906 462.714844 278.121094 458.382812 279.453125 M 550.589844 292.355469 C 546.019531 293.324219 542.421875 297.875 542.421875 302.6875 C 542.421875 304.039062 544.175781 309.730469 546.320312 315.328125 C 551.167969 327.972656 552.351562 331.636719 554.476562 340.699219 C 556.703125 350.148438 557.675781 352.328125 560.878906 355.019531 C 563.25 357.015625 564.03125 357.230469 567.835938 356.910156 C 571.328125 356.625 572.601562 356.085938 574.65625 354.027344 C 576.953125 351.734375 577.214844 350.960938 577.476562 345.699219 C 577.792969 339.261719 575.742188 329.863281 570.929688 315.710938 C 564.3125 296.257812 559.308594 290.511719 550.589844 292.355469 M 291.050781 302.660156 C 287.453125 303.808594 282.554688 308.195312 275.9375 316.183594 C 264.046875 330.535156 255.25 345.652344 255.25 351.714844 C 255.25 359.328125 261.828125 364.585938 268.953125 362.667969 C 272.804688 361.632812 275.035156 359.179688 280.371094 350.125 C 285.386719 341.605469 289.804688 335.703125 299.027344 325.1875 C 306.152344 317.058594 307.273438 314.425781 305.660156 309.546875 C 303.882812 304.164062 296.800781 300.824219 291.050781 302.660156 M 216.371094 307.425781 C 212.238281 309.304688 210.648438 311.5625 204.914062 323.703125 C 197.945312 338.460938 192.054688 356.4375 192.054688 362.960938 C 192.054688 369.894531 196.757812 374.695312 203.546875 374.695312 C 206.679688 374.695312 207.742188 374.25 210.457031 371.792969 C 213.210938 369.308594 214.019531 367.746094 216.167969 360.796875 C 219.234375 350.867188 224.410156 337.4375 228.777344 328.085938 C 232.886719 319.28125 233.1875 314.574219 229.890625 310.652344 C 227.695312 308.046875 223.675781 305.886719 221.078125 305.921875 C 220.292969 305.929688 218.175781 306.605469 216.371094 307.425781 M 381.640625 315.207031 C 366.914062 317.316406 357.8125 320.085938 346.578125 325.894531 C 319.011719 340.128906 299.847656 366.503906 293.578125 398.839844 C 291.667969 408.699219 291.523438 425.839844 293.265625 435.984375 C 301.296875 482.75 337.894531 519.039062 386.867188 528.792969 C 392.011719 529.816406 397.898438 530.234375 407.691406 530.253906 L 421.34375 530.28125 L 424.753906 528.027344 C 430.949219 523.933594 431.929688 517.355469 427.160156 511.925781 C 424.285156 508.648438 419.851562 507.484375 410.195312 507.480469 C 366.40625 507.445312 328.296875 478.96875 317.53125 438.234375 C 315.902344 432.070312 315.648438 429.28125 315.675781 417.894531 C 315.710938 403.203125 316.835938 397.332031 321.902344 385.3125 C 335.179688 353.835938 367.949219 334.273438 400.039062 338.675781 C 414.667969 340.691406 426.136719 346.265625 436.101562 356.230469 C 442.992188 363.125 447.769531 370.765625 450.9375 379.976562 C 453.78125 388.253906 454.519531 403.945312 452.476562 412.691406 C 448.144531 431.234375 434.527344 445.753906 417.238281 450.253906 C 407.398438 452.816406 394.523438 451.410156 386.160156 446.863281 C 370.757812 438.484375 363.765625 422.117188 368.976562 406.648438 C 372.230469 396.972656 382.394531 389.082031 391.582031 389.101562 C 402.71875 389.121094 410.578125 399.203125 405.695312 407.210938 C 404.71875 408.8125 403.046875 410.085938 401.097656 410.710938 C 396.753906 412.113281 396.035156 412.898438 396.035156 416.25 C 396.035156 423.847656 406.199219 426.484375 414.699219 421.097656 C 425.269531 414.394531 428.734375 399.433594 422.6875 386.628906 C 414.078125 368.417969 391.507812 362.285156 370.441406 372.4375 C 362.675781 376.179688 353.925781 385.316406 349.792969 394 C 348.039062 397.679688 346.132812 402.675781 345.558594 405.09375 C 344.066406 411.367188 344.269531 424.386719 345.953125 430.6875 C 355.097656 464.828125 393.921875 483.445312 429.1875 470.597656 C 445.410156 464.695312 459.855469 451.71875 467.835938 435.890625 C 480.589844 410.582031 479.25 379.367188 464.34375 354.609375 C 459.726562 346.941406 449.003906 335.234375 442.121094 330.351562 C 431.078125 322.519531 417.414062 317.277344 403.636719 315.589844 C 396.851562 314.757812 386.082031 314.570312 381.636719 315.207031 M 148.832031 325.828125 C 144.910156 327.066406 143.210938 328.742188 141.65625 332.894531 C 137.402344 344.25 131.609375 373.183594 130.710938 387.519531 C 130.324219 393.769531 130.480469 395.617188 131.585938 397.757812 C 134.421875 403.234375 142.378906 405.242188 147.914062 401.871094 C 151.550781 399.648438 153.308594 395.128906 154.433594 385.09375 C 155.820312 373.011719 157.957031 361.066406 160.84375 349.253906 C 163.664062 337.746094 163.8125 334.433594 161.691406 330.945312 C 159.007812 326.550781 153.496094 324.355469 148.832031 325.832031 M 249.585938 375.71875 C 248.101562 376.71875 246.09375 378.714844 245.121094 380.152344 C 241.699219 385.230469 239.097656 400.964844 238.949219 417.496094 C 238.855469 427.699219 239.007812 428.992188 240.65625 432.078125 C 241.648438 433.9375 243.523438 436.007812 244.8125 436.679688 C 248.140625 438.394531 253.34375 438.210938 256.5 436.261719 C 260.335938 433.886719 261.457031 429.878906 261.96875 416.695312 C 262.207031 410.535156 263.167969 401.007812 264.101562 395.527344 C 265.984375 384.453125 265.785156 381.007812 263.078125 378.109375 C 258.882812 373.617188 253.988281 372.75 249.585938 375.71875 M 561.664062 377.585938 C 558.085938 380.59375 557.699219 381.648438 556.042969 392.921875 C 555.21875 398.519531 553.980469 405.546875 553.285156 408.546875 C 552.589844 411.542969 552.019531 415.816406 552.019531 418.039062 C 552.019531 421.691406 552.328125 422.390625 555.222656 425.289062 C 558.324219 428.390625 558.566406 428.476562 562.828125 428.125 C 568.046875 427.695312 570.324219 425.914062 572.6875 420.417969 C 576.316406 411.964844 579.472656 387.921875 577.667969 382.453125 C 575.429688 375.675781 566.984375 373.105469 561.664062 377.585938 M 612.257812 388.21875 C 608.21875 390.75 607.402344 392.769531 605.589844 404.695312 C 604.523438 411.585938 603.316406 418.449219 601.972656 425.289062 C 600.921875 430.457031 600.265625 435.316406 600.511719 436.085938 C 601.976562 440.636719 602.867188 442.042969 605.203125 443.484375 C 608.386719 445.457031 613.734375 445.585938 616.8125 443.761719 C 618.050781 443.039062 619.773438 441.144531 620.644531 439.5625 C 624.511719 432.566406 629.714844 401.035156 628.039062 394.796875 C 626.210938 388.007812 618.023438 384.59375 612.257812 388.21875 M 193.253906 389.867188 C 190.699219 390.9375 187.976562 393.890625 186.65625 397.011719 C 184.964844 401 184.359375 423.53125 185.582031 436.816406 C 186.976562 451.988281 190.199219 457.359375 197.917969 457.359375 C 202.390625 457.359375 206.417969 455.070312 208.292969 451.464844 C 209.589844 448.96875 209.675781 447.308594 209.164062 434.691406 C 208.824219 426.03125 208.609375 417.367188 208.523438 408.699219 C 208.457031 397.371094 208.339844 396.546875 206.53125 394.007812 C 203.574219 389.863281 197.664062 388.023438 193.25 389.871094 M 661.488281 398.3125 C 658.476562 399.949219 656.230469 405.308594 655.625 412.296875 C 654.785156 422.050781 651.4375 441.46875 648.496094 453.640625 C 645.277344 466.953125 645.46875 469.570312 649.957031 473.691406 C 652.4375 475.964844 653.332031 476.289062 657.210938 476.289062 C 661.09375 476.289062 661.972656 475.972656 664.417969 473.691406 C 666.765625 471.503906 667.398438 470.136719 668.398438 465.089844 C 670.972656 452.097656 672.113281 439.835938 672.558594 420.265625 C 672.984375 401.679688 672.902344 399.710938 671.660156 398.460938 C 669.96875 396.777344 664.46875 396.695312 661.488281 398.3125 M 136.394531 422.664062 C 134.222656 423.804688 132.527344 425.441406 131.3125 427.574219 C 129.644531 430.53125 129.53125 431.445312 130.03125 437.757812 C 131.292969 453.675781 134.429688 472.628906 138.125 486.671875 C 140.46875 495.574219 141.390625 497.195312 145.121094 498.964844 C 153.003906 502.707031 161.65625 497.605469 161.65625 489.222656 C 161.65625 487.421875 160.589844 481.164062 159.28125 475.316406 C 156.609375 463.328125 154.976562 452.929688 153.675781 439.527344 C 153.179688 434.492188 152.214844 429.175781 151.523438 427.714844 C 148.796875 421.976562 142.132812 419.746094 136.398438 422.664062 M 545.882812 438.378906 C 543.011719 439.792969 540.933594 442.65625 536.0625 451.886719 C 531.285156 460.949219 525.113281 469.878906 517.539062 478.6875 C 510.183594 487.242188 508.46875 490.445312 509.285156 494.15625 C 511.066406 502.253906 519.996094 505.429688 526.902344 500.425781 C 535.351562 494.300781 548.789062 476.476562 556.441406 461.246094 C 562.554688 449.082031 562.089844 441.792969 554.996094 438.425781 C 551.511719 436.773438 549.164062 436.761719 545.882812 438.378906 M 252.105469 452.894531 C 247.703125 455.136719 246.050781 458.046875 246.167969 463.335938 C 246.398438 473.867188 261 504.863281 268.117188 509.933594 C 274.957031 514.800781 284.484375 511.128906 286.003906 503.039062 C 286.496094 500.382812 285.777344 498.507812 278.980469 484.78125 C 274.8125 476.371094 270.445312 466.894531 269.269531 463.726562 C 266.847656 457.171875 264.90625 454.375 261.617188 452.675781 C 258.59375 451.105469 255.460938 451.179688 252.105469 452.890625 M 593.878906 457.042969 C 591.851562 458.277344 589.972656 461.382812 584.554688 472.4375 C 577.011719 487.824219 571.8125 496.449219 563.207031 507.847656 C 556.675781 516.5 555.140625 519.972656 556.058594 524.042969 C 557.804688 531.804688 567.238281 534.707031 573.984375 529.5625 C 580.441406 524.636719 594.046875 504.867188 602.027344 488.816406 C 611.472656 469.816406 612.519531 463.253906 606.90625 458.113281 C 604.507812 455.914062 603.425781 455.488281 600.230469 455.492188 C 597.871094 455.492188 595.449219 456.085938 593.878906 457.042969 M 203.351562 480.421875 C 198.410156 482.871094 196.371094 487.449219 197.625 493.300781 C 198.804688 498.796875 203.273438 509.890625 208.660156 520.683594 C 216.644531 536.679688 220.554688 541.082031 226.785156 541.082031 C 232.894531 541.082031 237.683594 536.792969 238.257812 530.816406 C 238.609375 527.179688 238.175781 525.992188 232.238281 514.191406 C 228.722656 507.203125 224.320312 497.882812 222.453125 493.484375 C 218.351562 483.8125 216.910156 481.675781 213.347656 479.984375 C 209.699219 478.253906 207.539062 478.347656 203.351562 480.421875 M 637.683594 488.75 C 636.125 490.058594 633.367188 494.675781 630.125 501.40625 C 627.316406 507.234375 622.757812 515.742188 619.992188 520.320312 C 613.203125 531.558594 611.773438 534.941406 612.460938 538.117188 C 613.832031 544.449219 620.101562 548.378906 626.195312 546.738281 C 632.152344 545.136719 639.367188 534.9375 649.78125 513.398438 C 656.578125 499.328125 656.871094 493.574219 651.046875 488.667969 C 647.648438 485.808594 641.136719 485.84375 637.683594 488.75 M 474.832031 491.953125 C 472.191406 493.070312 465.957031 495.585938 460.976562 497.542969 C 448.925781 502.273438 447.671875 502.984375 445.707031 506.160156 C 443.613281 509.550781 443.570312 513.515625 445.597656 516.84375 C 449.035156 522.476562 455.898438 523.320312 467.28125 519.507812 C 484.367188 513.78125 492.828125 507.492188 492.828125 500.511719 C 492.828125 495.164062 487.4375 489.863281 482.039062 489.90625 C 480.714844 489.914062 477.46875 490.835938 474.832031 491.953125 M 157.222656 518.574219 C 154.09375 520.480469 152.058594 523.617188 152.058594 526.523438 C 152.058594 533.03125 178.492188 577.878906 182.324219 577.878906 C 184.605469 577.878906 190.652344 574.433594 192.265625 572.207031 C 193.09375 571.070312 193.964844 568.714844 194.195312 566.976562 C 194.558594 564.246094 194.011719 562.679688 190.136719 555.449219 C 186.550781 548.691406 183.03125 541.902344 179.570312 535.082031 C 176.226562 528.484375 172.722656 522.238281 171.773438 521.207031 C 167.882812 516.953125 161.710938 515.839844 157.226562 518.574219 M 294.160156 517.90625 C 289.792969 519.210938 286.445312 523.710938 286.445312 528.273438 C 286.445312 533.941406 291.65625 540.335938 304.289062 550.160156 C 317.191406 560.175781 331.222656 568.207031 346.386719 574.261719 C 356.679688 578.390625 366.144531 581.078125 370.386719 581.074219 C 374.296875 581.074219 378.4375 578.824219 380.691406 575.476562 C 384.242188 570.214844 381.921875 562.703125 375.796875 559.617188 C 374.832031 559.132812 369.359375 557.070312 363.640625 555.039062 C 344.160156 548.125 328.675781 539.417969 312.417969 526.246094 C 304.71875 520 299.816406 517.078125 297.246094 517.1875 C 296.804688 517.203125 295.417969 517.527344 294.160156 517.90625 M 534.34375 534.648438 C 533.203125 534.996094 528.253906 537.660156 523.351562 540.570312 C 517.320312 544.097656 511.195312 547.441406 504.96875 550.609375 C 493.59375 556.308594 490.429688 559.355469 490.429688 564.589844 C 490.429688 568.855469 492.96875 572.929688 496.84375 574.878906 C 502.058594 577.496094 505.769531 576.679688 519.15625 569.953125 C 530.011719 564.492188 540.59375 557.855469 544.230469 554.207031 C 550.894531 547.53125 549.46875 537.800781 541.371094 534.734375 C 538.8125 533.765625 537.316406 533.746094 534.34375 534.648438 M 245.25 550.648438 C 241.800781 552.085938 239.035156 556.050781 238.648438 560.128906 C 238.152344 565.292969 239.6875 568.425781 246.128906 575.386719 C 256.203125 586.269531 278.925781 604.515625 289.246094 610.023438 C 299.625 615.558594 308.84375 611.34375 308.839844 601.074219 C 308.832031 595.472656 306.933594 593.257812 295.246094 585.257812 C 286.089844 578.988281 275.414062 570.238281 265.164062 560.601562 C 260.0625 555.804688 255.109375 551.441406 254.167969 550.90625 C 252.203125 549.800781 247.613281 549.664062 245.25 550.648438 M 589.257812 564.863281 C 587.167969 565.390625 584.652344 567.132812 570.992188 577.476562 C 564.601562 582.316406 555.390625 588.613281 550.519531 591.476562 C 530.5 603.238281 528.71875 604.8125 528.628906 610.871094 C 528.53125 617.511719 533.554688 622.671875 540.128906 622.671875 C 549.902344 622.671875 596.824219 590.578125 601.664062 580.582031 C 604.65625 574.394531 602.28125 568.074219 596.011719 565.570312 C 592.710938 564.25 591.972656 564.171875 589.257812 564.859375 M 451.632812 566.039062 C 448.992188 566.445312 437.652344 566.878906 426.433594 566.992188 C 414.117188 567.125 405.214844 567.554688 403.964844 568.074219 C 402.824219 568.550781 400.898438 570.125 399.679688 571.570312 C 397.699219 573.925781 397.5 574.6875 397.796875 578.808594 C 398.375 586.769531 402.539062 589.472656 416.253906 590.792969 C 431.796875 592.289062 459.992188 590.320312 467.414062 587.21875 C 468.863281 586.613281 471.21875 584.789062 472.644531 583.167969 C 474.777344 580.734375 475.230469 579.5625 475.226562 576.449219 C 475.222656 571.945312 473.113281 568.082031 469.703125 566.316406 C 467.03125 564.933594 459.460938 564.816406 451.628906 566.039062 M 198.855469 588.597656 C 197.535156 589.183594 195.765625 590.429688 194.921875 591.371094 C 193.550781 592.917969 193.507812 593.308594 194.523438 595.222656 C 195.148438 596.394531 201.300781 603.109375 208.207031 610.144531 C 220.441406 622.613281 220.800781 622.902344 222.605469 621.734375 C 226.769531 619.035156 228.421875 612.058594 226 607.375 C 224.214844 603.921875 212.445312 591.414062 208.976562 589.28125 C 205.6875 587.257812 202.394531 587.039062 198.855469 588.597656 M 345.085938 618.636719 C 337.058594 623.53125 337.96875 634.042969 346.832031 638.824219 C 355.113281 643.289062 379.109375 649.074219 396.4375 650.789062 C 405.570312 651.691406 406.21875 651.65625 409.8125 650.058594 C 414.984375 647.761719 417.019531 644.410156 416.613281 638.863281 C 416.105469 632.003906 411.132812 628.203125 401.234375 627.121094 C 391.828125 626.089844 377.855469 623.371094 365.898438 620.246094 C 352.222656 616.671875 348.746094 616.40625 345.085938 618.636719 M 487.628906 619.90625 C 482.082031 621.535156 465.867188 624.71875 457.230469 625.875 C 445.875 627.394531 441.25 630.207031 439.726562 636.503906 C 438.285156 642.457031 443.308594 649.304688 449.835938 650.285156 C 456.003906 651.207031 479.300781 647.214844 495.191406 642.503906 C 505.214844 639.535156 509.96875 632.792969 506.984375 625.777344 C 504.933594 620.960938 502.21875 619.171875 496.601562 618.941406 C 493.867188 618.824219 489.828125 619.261719 487.628906 619.90625 M 242.453125 626.4375 C 240.601562 627.113281 237.617188 630.042969 236.402344 632.375 C 235.316406 634.46875 235.351562 634.507812 244.28125 640.90625 C 261.257812 653.078125 291.777344 669.957031 294.746094 668.816406 C 296.429688 668.171875 297.183594 663.320312 296.109375 660.0625 C 294.867188 656.296875 291.566406 653.433594 280.320312 646.363281 C 274.96875 643 268.339844 638.589844 265.585938 636.5625 C 253.03125 627.324219 250.496094 625.871094 247 625.9375 C 245.160156 625.96875 243.109375 626.199219 242.449219 626.4375 " fill-opacity="1" fill-rule="evenodd"/></g></svg>